<?xml version="1.0" encoding="utf-8"?>
<!DOCTYPE svg PUBLIC "-//W3C//DTD SVG 1.0//EN" "http://www.w3.org/TR/2001/REC-SVG-20010904/DTD/svg10.dtd">
<svg version="1.0" xmlns="http://www.w3.org/2000/svg" width="1000px" height="1000px" viewBox="15 0 1000 1000" preserveAspectRatio="xMidYMid meet">
 <g fill="none" stroke="#fffefe" stroke-width="1.41">
  <path d="M 0 500 c 0 -500 0 -500 514.81 -500 514.81 0 514.81 0 514.81 500 0 500 0 500 -514.81 500 -514.81 0 -514.81 0 -514.81 -500 z  m 527.22 459.66 c 33.57 -22.85 61.07 -55.43 80.54 -95.49 16.93 -34.70 24.96 -79.97 21.30 -119.46 -1.97 -22.43 -4.51 -34.70 -11.42 -55.71 -5.22 -16.36 -19.32 -44.01 -21.86 -43.44 -0.71 0.14 -6.49 2.54 -12.83 5.36 -14.10 6.21 -34.70 11.57 -51.76 13.40 -7.05 0.85 -13.12 2.26 -13.68 3.10 -0.56 0.85 -1.41 4.51 -1.97 8.04 -1.55 10.44 -11.14 36.95 -19.18 52.33 -9.73 19.04 -18.19 31.73 -31.88 47.95 -14.81 17.63 -27.22 28.91 -44.71 40.48 -7.90 5.22 -14.53 9.73 -14.95 10.01 -0.28 0.14 1.55 6.91 4.09 14.81 11.85 36.25 39.77 77.15 69.53 102.26 14.25 11.99 31.88 24.26 34.84 24.26 1.27 0 7.48 -3.53 13.96 -7.90 z  m 292.24 -118.34 c 20.87 -3.67 20.17 -3.24 22.14 -12.83 11.71 -55.57 5.50 -106.77 -18.62 -156.42 -10.86 -22.28 -23.55 -39.35 -45.70 -61.50 -20.73 -20.73 -37.80 -33.15 -63.33 -46.12 -11.71 -5.92 -44.99 -18.19 -46.12 -16.93 -0.14 0.28 -1.41 4.23 -2.82 8.89 -5.22 18.34 -18.34 42.17 -31.31 56.98 -5.50 6.21 -5.50 6.21 0.99 16.22 23.98 36.81 37.09 92.38 33.71 142.60 -1.13 17.21 -1.97 23.55 -4.94 33.71 -2.26 8.18 -3.10 7.33 12.98 14.95 22.85 10.86 50.07 19.04 72.50 22 18.05 2.26 53.31 1.55 70.52 -1.55 z  m -540.20 -4.23 c 27.79 -3.24 70.24 -17.77 91.26 -31.17 25.81 -16.50 53.46 -41.75 68.69 -62.76 11.28 -15.51 23.84 -39.77 31.03 -59.52 9.17 -25.53 9.03 -22.99 1.27 -24.82 -16.64 -4.23 -42.60 -18.90 -57.83 -33 -5.92 -5.36 -5.92 -5.36 -20.03 2.96 -49.65 29.34 -109.73 39.21 -167.70 27.64 -8.46 -1.69 -11.99 -1.97 -13.40 -0.85 -7.33 6.21 -22 47.81 -27.22 77.86 -3.10 17.77 -3.53 23.27 -2.96 43.02 0.56 19.18 3.39 44.71 6.06 53.17 0.85 2.82 9.73 4.94 30.89 7.48 19.61 2.54 39.21 2.54 59.94 0 z  m 23.98 -218.48 c 21.44 -3.95 60.08 -18.05 73.48 -26.80 5.50 -3.67 5.50 -3.67 2.82 -9.03 -8.04 -16.08 -16.22 -44.71 -17.77 -62.48 -0.85 -10.72 -0.85 -10.72 -11.71 -13.26 -60.23 -14.10 -109.45 -48.94 -145.70 -102.96 -5.08 -7.48 -5.08 -7.48 -17.63 -3.39 -14.95 5.08 -49.22 22.57 -61.78 31.45 -19.18 13.68 -43.44 39.07 -60.65 63.19 -7.76 11.14 -8.32 9.03 7.05 30.04 10.58 14.67 33.15 37.66 47.81 48.80 8.32 6.35 32.16 21.16 42.74 26.52 13.54 6.91 48.80 17.21 67.56 19.75 14.67 1.97 58.11 0.85 73.77 -1.83 z  m 551.48 -2.96 c 27.50 -10.44 57.12 -28.49 78.14 -47.39 11.42 -10.30 26.66 -28.07 36.67 -42.60 8.32 -12.27 8.32 -12.27 4.37 -18.19 -18.76 -28.91 -42.17 -52.47 -70.52 -70.94 -18.19 -11.99 -27.64 -16.93 -47.39 -24.68 -52.47 -21.02 -114.25 -20.87 -167 0.14 -13.54 5.50 -32.02 14.39 -35.54 17.07 -1.13 0.85 0 4.80 4.51 14.25 9.59 20.87 14.67 41.04 14.81 59.10 0 6.49 0 6.49 6.06 7.48 25.67 4.23 71.51 25.67 97.46 45.56 19.46 14.95 41.75 39.63 53.17 58.67 5.50 9.31 5.22 9.31 25.25 1.55 z  m -480.54 -168.41 c 4.94 -11.71 15.23 -28.07 24.68 -39.35 7.48 -8.89 7.48 -8.89 -0.85 -22.57 -22.99 -38.08 -31.73 -71.09 -31.88 -120.17 -0.14 -23.55 0.42 -29.90 3.24 -43.44 1.69 -8.89 2.96 -16.22 2.68 -16.50 -2.68 -2.26 -18.90 -10.16 -30.61 -14.81 -38.79 -15.37 -79.41 -20.03 -120.73 -13.96 -11.85 1.69 -26.09 5.50 -26.09 6.91 0 0.42 -1.41 8.18 -3.10 17.07 -3.95 21.30 -4.37 59.66 -0.85 81.95 5.64 34.56 23.84 74.89 46.69 103.81 30.47 38.65 67.42 64.46 114.53 79.97 14.10 4.65 14.10 4.65 16.36 -2.54 1.27 -4.09 3.95 -11.42 5.92 -16.36 z  m 264.46 -56.14 c 20.45 -12.41 50.63 -24.12 75.74 -29.34 23.84 -4.94 70.94 -4.94 94.36 0 13.40 2.82 12.13 3.81 21.44 -15.94 14.95 -31.88 23.13 -66.29 23.13 -98.73 0 -14.53 -4.09 -44.57 -7.33 -54.72 -1.83 -5.22 -2.12 -5.50 -11.99 -7.76 -5.64 -1.41 -19.46 -3.24 -30.61 -4.23 -53.31 -4.51 -102.82 8.74 -151.06 40.34 -26.38 17.21 -58.96 52.33 -73.06 78.28 -9.73 17.91 -23.27 53.88 -21.86 57.97 0.28 0.85 7.19 3.95 15.23 7.05 17.49 6.63 29.76 13.68 43.86 25.25 5.78 4.65 10.58 8.46 10.86 8.46 0.28 0 5.36 -2.96 11.28 -6.63 z  m -174.05 -27.93 c 16.22 -6.06 31.31 -9.17 43.72 -9.17 8.74 0 8.74 0 11.28 -10.86 6.91 -29.34 15.51 -49.37 32.86 -75.88 19.61 -29.90 42.31 -52.75 69.82 -70.24 8.04 -5.08 8.04 -5.08 3.39 -19.04 -16.36 -48.38 -50.35 -92.24 -94.50 -121.72 -9.87 -6.63 -9.87 -6.63 -18.34 -0.85 -25.67 17.07 -44.99 35.26 -61.07 57.40 -24.54 33.71 -37.38 62.48 -44.43 99.72 -4.51 24.26 -4.09 62.06 1.13 86.74 4.80 23.27 8.74 34.41 19.75 56.98 9.31 18.76 9.31 18.76 15.80 15.51 3.67 -1.83 12.98 -5.64 20.59 -8.60 z "/>
 </g>
 <g fill="#ff7492">
  <path d="M 501.97 963.61 c -42.88 -28.07 -77.86 -72.78 -94.36 -120.73 -3.10 -9.31 -5.22 -17.21 -4.65 -17.77 0.71 -0.42 7.48 -5.08 15.37 -10.30 31.17 -20.73 57.40 -50.92 76.59 -88.43 8.04 -15.37 17.63 -41.89 19.18 -52.33 0.56 -3.53 1.41 -7.19 1.97 -8.04 0.56 -0.85 6.63 -2.26 13.54 -3.10 22.43 -2.54 46.54 -9.59 61.21 -17.77 3.39 -1.83 6.35 -3.24 6.49 -3.10 0.28 0.28 3.95 6.77 8.32 14.53 8.32 14.67 17.21 39.63 21.16 58.53 10.01 49.79 3.39 107.48 -17.63 150.49 -14.53 30.04 -33.99 56.56 -55.99 76.16 -11.99 10.72 -36.95 28.63 -39.63 28.63 -0.71 0 -5.92 -3.10 -11.57 -6.77 z "/>
  <path d="M 747.53 844.29 c -15.80 -1.97 -29.76 -5.50 -49.37 -12.41 -16.50 -5.78 -38.08 -16.36 -38.08 -18.48 0 -1.13 0.85 -5.08 1.97 -8.89 3.67 -12.41 5.22 -27.64 5.22 -48.94 0 -22.99 -0.42 -27.64 -4.51 -47.81 -6.06 -30.04 -16.22 -56.28 -29.34 -76.59 -3.53 -5.36 -6.77 -10.30 -6.91 -11 -0.28 -0.56 2.54 -4.65 6.35 -9.17 3.81 -4.37 9.03 -11.14 11.57 -14.81 6.21 -9.17 16.50 -31.17 19.32 -41.75 1.41 -5.08 3.24 -8.60 4.37 -8.60 4.94 0 34.98 10.86 47.25 17.21 25.53 12.98 42.60 25.39 63.33 46.12 22.14 22.14 34.84 39.21 45.70 61.50 15.66 32.16 22.43 58.67 23.98 94.50 0.99 21.30 -0.85 43.30 -5.36 64.74 -1.55 7.48 -2.26 8.60 -5.92 9.59 -21.02 5.64 -64.32 8.04 -89.56 4.80 z "/>
  <path d="M 217.91 838.50 c -21.16 -2.54 -30.04 -4.65 -30.89 -7.48 -2.82 -8.74 -5.64 -34.27 -6.06 -54.58 -0.56 -21.30 -0.28 -26.52 2.96 -44.43 3.95 -22.85 12.41 -50.35 20.03 -65.44 8.04 -16.08 6.49 -15.09 21.02 -12.13 24.26 5.08 42.31 6.35 65.02 4.51 37.24 -2.82 73.91 -14.25 104.23 -32.72 13.82 -8.46 13.82 -8.46 20.31 -2.40 3.53 3.24 10.01 8.74 14.25 11.99 9.17 6.77 34.27 19.04 44.15 21.58 8.32 1.97 8.32 1.13 -1.13 27.08 -11.99 33.29 -28.77 60.37 -51.90 84.06 -22.14 22.71 -46.83 40.06 -71.93 50.78 -43.86 18.76 -84.77 24.82 -130.04 19.18 z "/>
  <path d="M 228.07 621.86 c -18.34 -2.40 -53.74 -12.69 -67.56 -19.75 -10.58 -5.36 -34.41 -20.17 -42.74 -26.52 -20.45 -15.51 -44.85 -42.31 -58.96 -64.60 -3.67 -5.78 -3.67 -5.78 3.53 -16.22 17.49 -24.96 42.31 -50.63 62.20 -64.74 20.59 -14.39 75.18 -38.79 76.73 -34.27 1.69 4.94 24.96 35.12 34.27 44.29 35.12 34.70 71.23 55.15 115.94 65.59 10.86 2.54 10.86 2.54 11.71 13.26 1.69 18.34 9.73 46.26 18.48 63.75 3.24 6.49 3.24 6.49 -5.50 11.71 -10.30 6.06 -41.18 18.34 -55.29 22 -25.39 6.49 -66.01 8.89 -92.81 5.50 z "/>
  <path d="M 828.07 615.66 c -11.28 -19.04 -33.57 -43.72 -53.17 -58.82 -25.95 -19.89 -71.79 -41.33 -97.46 -45.56 -6.06 -0.99 -6.06 -0.99 -6.06 -7.48 -0.14 -18.48 -5.22 -38.36 -15.51 -60.51 -6.77 -14.39 -6.77 -14.39 3.39 -19.75 35.97 -19.18 72.64 -28.63 110.58 -28.63 11.42 0 26.23 0.71 32.72 1.41 63.05 7.76 124.40 43.86 163.05 95.91 9.31 12.41 13.26 18.76 13.26 21.16 0 4.51 -22.14 33.57 -36.67 48.10 -23.98 23.98 -53.17 43.02 -86.18 55.71 -6.77 2.54 -14.67 5.08 -17.63 5.50 -5.50 0.85 -5.50 0.85 -10.30 -7.05 z "/>
  <path d="M 350.49 467.70 c -47.39 -15.94 -84.06 -41.47 -114.53 -80.11 -22.85 -28.91 -41.04 -69.25 -46.69 -103.81 -3.67 -22.57 -3.24 -63.47 0.85 -84.77 1.69 -8.89 3.10 -16.64 3.10 -17.07 0 -1.41 14.25 -5.22 26.23 -6.91 30.75 -4.51 64.32 -3.10 92.67 4.09 27.64 6.91 61.64 21.86 61.64 27.08 0 1.27 -1.41 9.31 -3.10 17.63 -2.68 12.69 -3.24 19.61 -3.10 41.33 0.14 47.95 9.31 81.81 32.44 119.46 8.74 14.53 8.74 14.53 0.71 24.12 -14.53 17.35 -28.35 43.02 -31.88 59.24 -0.42 2.40 -1.69 4.51 -2.54 4.51 -0.99 -0.14 -8.04 -2.26 -15.80 -4.80 z "/>
  <path d="M 615.94 391.40 c -14.95 -12.27 -26.94 -19.32 -45.42 -26.23 -8.60 -3.24 -15.66 -5.92 -15.94 -6.06 -0.99 -0.99 8.89 -30.18 14.53 -43.16 7.76 -17.63 11.42 -24.26 21.02 -37.38 37.52 -51.34 93.65 -86.74 154.72 -97.46 26.52 -4.65 70.94 -3.39 93.65 2.68 6.35 1.69 7.19 2.40 8.89 7.19 3.39 10.58 7.33 40.34 7.33 56.14 0 35.26 -8.32 69.53 -24.82 103.53 -7.62 15.66 -7.62 15.66 -20.73 12.98 -24.68 -5.22 -69.25 -5.50 -93.37 -0.42 -25.53 5.22 -59.94 19.04 -79.41 31.59 -4.80 3.24 -9.03 5.78 -9.17 5.78 -0.14 0 -5.22 -4.23 -11.28 -9.17 z "/>
  <path d="M 426.80 357.69 c -11 -22.57 -14.95 -33.71 -19.75 -57.12 -3.24 -14.81 -3.81 -21.44 -3.95 -45.13 -0.28 -23.55 0.14 -30.04 2.82 -44.29 7.05 -37.38 19.89 -66.01 44.43 -99.72 16.22 -22.14 35.40 -40.20 61.35 -57.69 9.03 -6.06 9.03 -6.06 13.96 -3.53 2.68 1.55 10.30 6.77 17.07 11.85 39.21 29.20 69.39 70.38 84.34 114.67 2.68 7.90 4.80 14.81 4.80 15.37 0 0.71 -3.67 3.53 -8.04 6.35 -27.64 17.49 -50.35 40.34 -69.96 70.24 -17.35 26.52 -25.95 46.54 -32.86 75.88 -2.54 10.86 -2.54 10.86 -11.28 10.86 -16.78 0 -43.86 7.48 -64.32 17.77 -3.67 1.83 -7.19 3.39 -8.04 3.39 -0.71 0 -5.36 -8.46 -10.58 -18.90 z "/>
 </g>
</svg>